# Aspose.3D Wavefront OBJ Exporter
# Copyright 2004-2023 Aspose Pty Ltd.
# File created: 07/21/2023 08:19:44


#
# object obj_23581071
#

v 5.47283983230590824 128.0001373291015625 -60.9999885559082032
v 15.473139762878418 128.0001373291015625 -60.9999885559082032
v 15.473139762878418 128.0001373291015625 -63.99998092651367184
v 5.47283983230590824 128.0001373291015625 -63.99998092651367184
v 15.473139762878418 128.0001373291015625 -60.9999885559082032
v 15.473139762878418 -127.99989318847656256 -61.00001144409179687
v 15.473139762878418 -127.99989318847656256 -64.00002288818359375
v 15.473139762878418 128.0001373291015625 -63.99998092651367184
v 5.47283983230590824 -127.99989318847656256 -64.00002288818359375
v 15.473139762878418 -127.99989318847656256 -64.00002288818359375
v 15.473139762878418 -127.99989318847656256 -61.00001144409179687
v 5.47283983230590824 -127.99989318847656256 -61.00001144409179687
v 5.47283983230590824 -127.99989318847656256 -64.00002288818359375
v 5.47283983230590824 128.0001373291015625 -63.99998092651367184
v 15.473139762878418 128.0001373291015625 -63.99998092651367184
v 15.473139762878418 -127.99989318847656256 -64.00002288818359375
v 15.473139762878418 -127.99989318847656256 -61.00001144409179687
v 15.473139762878418 128.0001373291015625 -60.9999885559082032
v 5.47283983230590824 128.0001373291015625 -60.9999885559082032
v 5.47283983230590824 -127.99989318847656256 -61.00001144409179687
v -2.52741003036499024 -119.99990081787109376 -64.00002288818359375
v -2.52741003036499024 -119.99990081787109376 -56.00001907348632812
v -2.52741003036499024 119.99990081787109376 -55.99982070922851568
v -2.52741003036499024 120.00002288818359375 -63.99982833862304688
v -2.52741003036499024 -119.99990081787109376 -56.00001907348632812
v 5.47283983230590824 -119.99990081787109376 -56.00001907348632812
v 5.47283983230590824 119.99990081787109376 -55.99982070922851568
v -2.52741003036499024 119.99990081787109376 -55.99982070922851568
v 5.47283983230590824 -119.99990081787109376 -56.00001907348632812
v 5.47283983230590824 -119.99990081787109376 -64.00002288818359375
v 5.47283983230590824 120.00002288818359375 -63.99982833862304688
v 5.47283983230590824 119.99990081787109376 -55.99982070922851568
v 5.47283983230590824 -119.99990081787109376 -64.00002288818359375
v -2.52741003036499024 -119.99990081787109376 -64.00002288818359375
v -2.52741003036499024 120.00002288818359375 -63.99982833862304688
v 5.47283983230590824 120.00002288818359375 -63.99982833862304688
v -2.527400016784668 -119.99990081787109376 56
v -2.527400016784668 -119.99990081787109376 63.9999885559082032
v -2.527400016784668 119.99989318847656256 64.00018310546875
v -2.527400016784668 119.99989318847656256 56.00019073486328125
v -2.527400016784668 -119.99990081787109376 63.9999885559082032
v 5.47284984588623048 -119.99990081787109376 63.9999885559082032
v 5.47284984588623048 119.99989318847656256 64.00018310546875
v -2.527400016784668 119.99989318847656256 64.00018310546875
v 5.47284984588623048 -119.99990081787109376 63.9999885559082032
v 5.47284984588623048 -119.99990081787109376 56
v 5.47284984588623048 119.99989318847656256 56.00019073486328125
v 5.47284984588623048 119.99989318847656256 64.00018310546875
v 5.47284984588623048 -119.99990081787109376 56
v -2.527400016784668 -119.99990081787109376 56
v -2.527400016784668 119.99989318847656256 56.00019073486328125
v 5.47284984588623048 119.99989318847656256 56.00019073486328125
v -2.527400016784668 119.99989318847656256 64.00018310546875
v -2.527400016784668 127.9998779296875 64.000030517578125
v -2.52741003036499024 127.99990081787109376 -63.99998092651367184
v -2.52741003036499024 119.99990081787109376 -63.99982833862304688
v -2.527400016784668 127.9998779296875 64.000030517578125
v 5.47284984588623048 127.9998779296875 64.000030517578125
v 5.47283983230590824 127.99990081787109376 -63.99998092651367184
v -2.52741003036499024 127.99990081787109376 -63.99998092651367184
v 5.47284984588623048 127.9998779296875 64.000030517578125
v 5.47284984588623048 119.99989318847656256 64.00018310546875
v 5.47283983230590824 119.99990081787109376 -63.99982833862304688
v 5.47283983230590824 127.99990081787109376 -63.99998092651367184
v 5.47284984588623048 119.99989318847656256 64.00018310546875
v -2.527400016784668 119.99989318847656256 64.00018310546875
v -2.52741003036499024 119.99990081787109376 -63.99982833862304688
v 5.47283983230590824 119.99990081787109376 -63.99982833862304688
v -2.527400016784668 -127.99990844726562496 63.9999885559082032
v -2.527400016784668 -119.99990081787109376 63.9999885559082032
v -2.52741003036499024 -119.99990081787109376 -64.00002288818359375
v -2.52741003036499024 -127.99989318847656256 -64.00002288818359375
v -2.527400016784668 -119.99990081787109376 63.9999885559082032
v 5.47284984588623048 -119.99990081787109376 63.9999885559082032
v 5.47283983230590824 -119.99990081787109376 -64.00002288818359375
v -2.52741003036499024 -119.99990081787109376 -64.00002288818359375
v 5.47284984588623048 -119.99990081787109376 63.9999885559082032
v 5.47284984588623048 -127.99990844726562496 63.9999885559082032
v 5.47283983230590824 -127.99989318847656256 -64.00002288818359375
v 5.47283983230590824 -119.99990081787109376 -64.00002288818359375
v 5.47284984588623048 -127.99990844726562496 63.9999885559082032
v -2.527400016784668 -127.99990844726562496 63.9999885559082032
v -2.52741003036499024 -127.99989318847656256 -64.00002288818359375
v 5.47283983230590824 -127.99989318847656256 -64.00002288818359375
v -2.527400016784668 119.99989318847656256 64.00018310546875
v 5.47284984588623048 119.99989318847656256 64.00018310546875
v 5.47284984588623048 127.9998779296875 64.000030517578125
v -2.527400016784668 127.9998779296875 64.000030517578125
v -2.527400016784668 -127.99990844726562496 63.9999885559082032
v 5.47284984588623048 -127.99990844726562496 63.9999885559082032
v 5.47284984588623048 -119.99990081787109376 63.9999885559082032
v -2.527400016784668 -119.99990081787109376 63.9999885559082032
v -2.52741003036499024 127.99990081787109376 -63.99998092651367184
v 5.47283983230590824 127.99990081787109376 -63.99998092651367184
v 5.47283983230590824 119.99990081787109376 -63.99982833862304688
v -2.52741003036499024 119.99990081787109376 -63.99982833862304688
v -2.52741003036499024 -119.99990081787109376 -64.00002288818359375
v 5.47283983230590824 -119.99990081787109376 -64.00002288818359375
v 5.47283983230590824 -127.99989318847656256 -64.00002288818359375
v -2.52741003036499024 -127.99989318847656256 -64.00002288818359375
v -2.52722001075744632 -119.99990844726562496 -56.00001907348632812
v -2.52722001075744632 -119.99990844726562496 55.99998092651367184
v -2.52722001075744632 119.99994659423828128 56.00001907348632812
v -2.52722001075744632 120.00000762939453125 -55.99998092651367184
# 104 vertices

vn 0 1 0
vn 0 1 0
vn 0 1 0
vn 0 1 0
vn 1 0 0
vn 1 0 0
vn 1 0 0
vn 1 0 0
vn 0 -1 0
vn 0 -1 0
vn 0 -1 0
vn 0 -1 0
vn 0 0 -1
vn 0 0 -1
vn 0 0 -1
vn 0 0 -1
vn 0 0 1
vn 0 0 1
vn 0 0 1
vn 0 0 1
vn -1 0 0
vn -1 0 0
vn -1 0 0
vn -1 0 0
vn 0 0 1
vn 0 0 1
vn 0 0 1
vn 0 0 1
vn 1 0 0
vn 1 0 0
vn 1 0 0
vn 1 0 0
vn 0 0 -1
vn 0 0 -1
vn 0 0 -1
vn 0 0 -1
vn -1 0 0
vn -1 0 0
vn -1 0 0
vn -1 0 0
vn 0 0 1
vn 0 0 1
vn 0 0 1
vn 0 0 1
vn 1 0 0
vn 1 0 0
vn 1 0 0
vn 1 0 0
vn 0 0 -1
vn 0 0 -1
vn 0 0 -1
vn 0 0 -1
vn -1 0 0
vn -1 0 0
vn -1 0 0
vn -1 0 0
vn 0 1 0
vn 0 1 0
vn 0 1 0
vn 0 1 0
vn 1 0 0
vn 1 0 0
vn 1 0 0
vn 1 0 0
vn 0 -1 0
vn 0 -1 0
vn 0 -1 0
vn 0 -1 0
vn -1 0 0
vn -1 0 0
vn -1 0 0
vn -1 0 0
vn 0 1 0
vn 0 1 0
vn 0 1 0
vn 0 1 0
vn 1 0 0
vn 1 0 0
vn 1 0 0
vn 1 0 0
vn 0 -1 0
vn 0 -1 0
vn 0 -1 0
vn 0 -1 0
vn 0 1.9999999494757503E-05 1
vn 0 1.9999999494757503E-05 1
vn 0 1.9999999494757503E-05 1
vn 0 1.9999999494757503E-05 1
vn 0 0 1
vn 0 0 1
vn 0 0 1
vn 0 0 1
vn 0 -1.9999999494757503E-05 -1
vn 0 -1.9999999494757503E-05 -1
vn 0 -1.9999999494757503E-05 -1
vn 0 -1.9999999494757503E-05 -1
vn 0 0 -1
vn 0 0 -1
vn 0 0 -1
vn 0 0 -1
vn -1 0 0
vn -1 0 0
vn -1 0 0
vn -1 0 0
# 104 vertex normals

vt 0.91335999965667728 -0.17639000713825226 0
vt 0.95033997297286992 -0.17639000713825226 0
vt 0.95033997297286992 -0.16529999673366546 0
vt 0.91335999965667728 -0.16529999673366546 0
vt 0.95529001951217648 -0.06617999821901321 0
vt 0.0086099999025464 -0.06617999821901321 0
vt 0.0086099999025464 -0.05508999899029732 0
vt 0.95529001951217648 -0.05508999899029732 0
vt 0.91335999965667728 -0.1409199982881546 0
vt 0.95033997297286992 -0.1409199982881546 0
vt 0.95033997297286992 -0.1520099937915802 0
vt 0.91335999965667728 -0.1520099937915802 0
vt 0.0086099999025464 -0.00600000005215406 0
vt 0.95529001951217648 -0.00600000005215406 0
vt 0.95529001951217648 -0.04298000037670135 0
vt 0.0086099999025464 -0.04298000037670135 0
vt 0.0086099999025464 -0.07932999730110168 0
vt 0.95529001951217648 -0.07932999730110168 0
vt 0.95529001951217648 -0.1163100004196167 0
vt 0.0086099999025464 -0.1163100004196167 0
vt 0.0086099999025464 -0.25771000981330872 0
vt 0.0086099999025464 -0.28729000687599184 0
vt 0.896120011806488 -0.28729000687599184 0
vt 0.89613002538681024 -0.25771000981330872 0
vt 0.0086099999025464 -0.24402999877929688 0
vt 0.0086099999025464 -0.21445000171661376 0
vt 0.896120011806488 -0.21445000171661376 0
vt 0.896120011806488 -0.24402999877929688 0
vt 0.0086099999025464 -0.20163999497890472 0
vt 0.0086099999025464 -0.17204999923706054 0
vt 0.89613002538681024 -0.17204999923706054 0
vt 0.89613002538681024 -0.20163999497890472 0
vt 0.0086099999025464 -0.16053999960422516 0
vt 0.0086099999025464 -0.13096000254154206 0
vt 0.89613002538681024 -0.13096000254154206 0
vt 0.89613002538681024 -0.16053999960422516 0
vt 0.0086099999025464 -0.43068999052047728 0
vt 0.0086099999025464 -0.4602699875831604 0
vt 0.89613002538681024 -0.4602699875831604 0
vt 0.89613002538681024 -0.43068999052047728 0
vt 0.0086099999025464 -0.4185200035572052 0
vt 0.0086099999025464 -0.38894000649452208 0
vt 0.89613002538681024 -0.38894000649452208 0
vt 0.89613002538681024 -0.4185200035572052 0
vt 0.0086099999025464 -0.37542000412940976 0
vt 0.0086099999025464 -0.34584000706672668 0
vt 0.89613002538681024 -0.34584000706672668 0
vt 0.89613002538681024 -0.37542000412940976 0
vt 0.0086099999025464 -0.3013800084590912 0
vt 0.0086099999025464 -0.33096998929977416 0
vt 0.89613002538681024 -0.33096998929977416 0
vt 0.89613002538681024 -0.3013800084590912 0
vt 0.31540998816490172 -0.95068001747131344 0
vt 0.34498998522758484 -0.95068001747131344 0
vt 0.34498998522758484 -0.47734001278877256 0
vt 0.31540998816490172 -0.47734001278877256 0
vt 0.2754400074481964 -0.95068001747131344 0
vt 0.30502000451087952 -0.95068001747131344 0
vt 0.30502000451087952 -0.47734001278877256 0
vt 0.2754400074481964 -0.47734001278877256 0
vt 0.26506000757217408 -0.95068001747131344 0
vt 0.23547999560832976 -0.95068001747131344 0
vt 0.23547999560832976 -0.47734001278877256 0
vt 0.26506000757217408 -0.47734001278877256 0
vt 0.22596000134944916 -0.95068001747131344 0
vt 0.196370005607605 -0.95068001747131344 0
vt 0.196370005607605 -0.47734001278877256 0
vt 0.22596000134944916 -0.47734001278877256 0
vt 0.0086099999025464 -0.95082002878189088 0
vt 0.0381999984383583 -0.95082002878189088 0
vt 0.0381999984383583 -0.4774799942970276 0
vt 0.0086099999025464 -0.4774799942970276 0
vt 0.1298999935388565 -0.95082002878189088 0
vt 0.1594800055027008 -0.95082002878189088 0
vt 0.1594800055027008 -0.4774799942970276 0
vt 0.1298999935388565 -0.4774799942970276 0
vt 0.11812999844551086 -0.95082002878189088 0
vt 0.08855000138282776 -0.95082002878189088 0
vt 0.08855000138282776 -0.4774799942970276 0
vt 0.11812999844551086 -0.4774799942970276 0
vt 0.07746999710798264 -0.95082002878189088 0
vt 0.04789000004529953 -0.95082002878189088 0
vt 0.04789000004529953 -0.4774799942970276 0
vt 0.07746999710798264 -0.4774799942970276 0
vt 0.196370005607605 -0.95910000801086432 0
vt 0.22596000134944916 -0.95910000801086432 0
vt 0.22596000134944916 -0.98868000507354736 0
vt 0.196370005607605 -0.98868000507354736 0
vt 0.0086099999025464 -0.9596800208091736 0
vt 0.0381999984383583 -0.9596800208091736 0
vt 0.0381999984383583 -0.98926997184753424 0
vt 0.0086099999025464 -0.98926997184753424 0
vt 0.23547999560832976 -0.98868000507354736 0
vt 0.26506000757217408 -0.98868000507354736 0
vt 0.26506000757217408 -0.95910000801086432 0
vt 0.23547999560832976 -0.95910000801086432 0
vt 0.04845999926328659 -0.98934000730514528 0
vt 0.07805000245571136 -0.98934000730514528 0
vt 0.07805000245571136 -0.95976001024246208 0
vt 0.04845999926328659 -0.95976001024246208 0
vt 0.37138000130653384 -0.55744999647140504 0
vt 0.37138000130653384 -0.84722000360488896 0
vt 0.9922999739646912 -0.84722000360488896 0
vt 0.9922999739646912 -0.55744999647140504 0
# 104 texture coords

g obj_23581071
s 1
f 1/1/1 2/2/2 3/3/3
f 1/1/1 3/3/3 4/4/4
f 5/5/5 6/6/6 7/7/7
f 5/5/5 7/7/7 8/8/8
f 9/9/9 10/10/10 11/11/11
f 9/9/9 11/11/11 12/12/12
f 13/13/13 14/14/14 15/15/15
f 13/13/13 15/15/15 16/16/16
f 17/17/17 18/18/18 19/19/19
f 17/17/17 19/19/19 20/20/20
f 21/21/21 22/22/22 23/23/23
f 21/21/21 23/23/23 24/24/24
f 25/25/25 26/26/26 27/27/27
f 25/25/25 27/27/27 28/28/28
f 29/29/29 30/30/30 31/31/31
f 29/29/29 31/31/31 32/32/32
f 33/33/33 34/34/34 35/35/35
f 33/33/33 35/35/35 36/36/36
f 37/37/37 38/38/38 39/39/39
f 37/37/37 39/39/39 40/40/40
f 41/41/41 42/42/42 43/43/43
f 41/41/41 43/43/43 44/44/44
f 45/45/45 46/46/46 47/47/47
f 45/45/45 47/47/47 48/48/48
f 49/49/49 50/50/50 51/51/51
f 49/49/49 51/51/51 52/52/52
f 53/53/53 54/54/54 55/55/55
f 53/53/53 55/55/55 56/56/56
f 57/57/57 58/58/58 59/59/59
f 57/57/57 59/59/59 60/60/60
f 61/61/61 62/62/62 63/63/63
f 61/61/61 63/63/63 64/64/64
f 65/65/65 66/66/66 67/67/67
f 65/65/65 67/67/67 68/68/68
f 69/69/69 70/70/70 71/71/71
f 69/69/69 71/71/71 72/72/72
f 73/73/73 74/74/74 75/75/75
f 73/73/73 75/75/75 76/76/76
f 77/77/77 78/78/78 79/79/79
f 77/77/77 79/79/79 80/80/80
f 81/81/81 82/82/82 83/83/83
f 81/81/81 83/83/83 84/84/84
f 85/85/85 86/86/86 87/87/87
f 85/85/85 87/87/87 88/88/88
f 89/89/89 90/90/90 91/91/91
f 89/89/89 91/91/91 92/92/92
f 93/93/93 94/94/94 95/95/95
f 93/93/93 95/95/95 96/96/96
f 97/97/97 98/98/98 99/99/99
f 97/97/97 99/99/99 100/100/100
f 101/101/101 102/102/102 103/103/103
f 101/101/101 103/103/103 104/104/104
#52 polygons

