# Blender 3.4.1
# www.blender.org
mtllib frame.mtl
o defaultMaterial
v -0.950638 0.617305 -0.087728
v -0.986967 0.653633 -0.090004
v 0.000000 0.653633 -0.090004
v 0.986967 0.653633 -0.090004
v 0.950638 0.617305 -0.087728
v -0.986967 0.653633 -0.090004
v -1.000000 0.666667 -0.076663
v 1.000000 0.666667 -0.076663
v 0.986967 0.653633 -0.090004
v 0.000000 0.653633 -0.090004
v 0.950638 -0.617305 -0.087728
v 0.986967 -0.653633 -0.090004
v 0.000000 -0.653633 -0.090004
v -0.986967 -0.653633 -0.090004
v -0.950638 -0.617305 -0.087728
v 0.986967 -0.653633 -0.090004
v 1.000000 -0.666667 -0.076663
v -1.000000 -0.666667 -0.076663
v -0.986967 -0.653633 -0.090004
v 0.000000 -0.653633 -0.090004
v 1.000000 0.666667 0.090004
v -1.000000 0.666667 0.090004
v -1.000000 -0.666667 0.090004
v 1.000000 -0.666667 0.090004
v 0.986967 0.653633 -0.090004
v 0.986967 -0.653633 -0.090004
v 0.950638 -0.617305 -0.087728
v 0.950638 0.617305 -0.087728
v -0.943331 0.609998 -0.074050
v -0.950638 0.617305 -0.087728
v 0.950638 0.617305 -0.087728
v 0.943331 0.609998 -0.074050
v -0.930350 0.597017 -0.034887
v 0.930350 0.597017 -0.034887
v -0.926655 0.593322 -0.030614
v 0.926655 0.593322 -0.030614
v -0.921963 0.588629 -0.027637
v 0.921963 0.588629 -0.027637
v -0.916667 0.583333 -0.026563
v 0.916667 0.583333 -0.026563
v 1.000000 -0.666667 0.090004
v 1.000000 -0.666667 -0.076663
v 1.000000 0.666667 -0.076663
v 1.000000 0.666667 0.090004
v 1.000000 -0.666667 -0.076663
v 0.986967 -0.653633 -0.090004
v 0.986967 0.653633 -0.090004
v 1.000000 0.666667 -0.076663
v -0.911371 0.578037 -0.027637
v 0.911371 0.578037 -0.027637
v -0.906678 0.573345 -0.030614
v 0.906678 0.573345 -0.030614
v -0.902984 0.569650 -0.034887
v 0.902984 0.569650 -0.034887
v 0.833333 -0.500000 -0.076663
v 0.833333 -0.500000 0.078513
v 0.833333 0.500000 0.078513
v 0.833333 0.500000 -0.076663
v -0.895625 0.562292 -0.050455
v 0.895625 0.562292 -0.050455
v -0.887559 0.554225 -0.063674
v 0.887559 0.554225 -0.063674
v -0.876909 0.543576 -0.074136
v 0.876909 0.543576 -0.074136
v 0.839410 -0.506077 -0.079205
v 0.833333 -0.500000 -0.076663
v 0.833333 0.500000 -0.076663
v 0.839410 0.506077 -0.079205
v -0.864507 0.531174 -0.080479
v 0.864507 0.531174 -0.080479
v -1.000000 0.666667 -0.076663
v -1.000000 0.666667 0.090004
v 1.000000 0.666667 0.090004
v 1.000000 0.666667 -0.076663
v -0.862591 0.529257 -0.076823
v -0.864507 0.531174 -0.080479
v 0.864507 0.531174 -0.080479
v 0.862591 0.529257 -0.076823
v 0.943331 -0.609998 -0.074050
v 0.930350 -0.597017 -0.034887
v 0.930350 0.597017 -0.034887
v 0.943331 0.609998 -0.074050
v 0.000000 0.653633 -0.090004
v 0.986967 0.653633 -0.090004
v 0.000000 0.647341 -0.081388
v -0.858080 0.524746 -0.071308
v 0.858080 0.524746 -0.071308
v -0.851602 0.518269 -0.069012
v 0.851602 0.518269 -0.069012
v -0.845129 0.511796 -0.071334
v 0.845129 0.511796 -0.071334
v -0.840629 0.507296 -0.076866
v 0.840629 0.507296 -0.076866
v 0.902984 -0.569650 -0.034887
v 0.895625 -0.562292 -0.050455
v 0.895625 0.562292 -0.050455
v 0.902984 0.569650 -0.034887
v 0.906678 -0.573345 -0.030614
v 0.906678 0.573345 -0.030614
v -0.839410 0.506077 -0.079205
v 0.839410 0.506077 -0.079205
v -0.833333 0.500000 -0.076663
v -0.839410 0.506077 -0.079205
v 0.839410 0.506077 -0.079205
v 0.833333 0.500000 -0.076663
v -0.833333 0.500000 0.078513
v -0.833333 0.500000 -0.076663
v 0.833333 0.500000 -0.076663
v 0.833333 0.500000 0.078513
v 0.911371 -0.578037 -0.027637
v 0.911371 0.578037 -0.027637
v 0.916667 -0.583333 -0.026563
v 0.916667 0.583333 -0.026563
v 0.921963 -0.588629 -0.027637
v 0.921963 0.588629 -0.027637
v 0.926655 -0.593322 -0.030614
v 0.926655 0.593322 -0.030614
v 0.833333 -0.500000 0.078513
v -0.833333 -0.500000 0.078513
v -0.833333 0.500000 0.078513
v 0.833333 0.500000 0.078513
v 0.862591 -0.529257 -0.076823
v 0.858080 -0.524746 -0.071308
v 0.858080 0.524746 -0.071308
v 0.862591 0.529257 -0.076823
v 0.851602 -0.518269 -0.069012
v 0.851602 0.518269 -0.069012
v 0.845129 -0.511796 -0.071334
v 0.845129 0.511796 -0.071334
v 0.840629 -0.507296 -0.076866
v 0.840629 0.507296 -0.076866
v 0.887559 -0.554225 -0.063674
v 0.887559 0.554225 -0.063674
v 0.876909 -0.543576 -0.074136
v 0.876909 0.543576 -0.074136
v 0.864507 -0.531174 -0.080479
v 0.864507 0.531174 -0.080479
v 0.864507 -0.531174 -0.080479
v 0.864507 0.531174 -0.080479
v 0.839410 -0.506077 -0.079205
v 0.839410 0.506077 -0.079205
v 0.950638 -0.617305 -0.087728
v 0.950638 0.617305 -0.087728
v -0.950638 -0.617305 -0.087728
v -0.986967 -0.653633 -0.090004
v -0.986967 0.653633 -0.090004
v -0.950638 0.617305 -0.087728
v 0.930350 -0.597017 -0.034887
v 0.943331 -0.609998 -0.074050
v -0.943331 -0.609998 -0.074050
v -0.930350 -0.597017 -0.034887
v 0.926655 -0.593322 -0.030614
v -0.926655 -0.593322 -0.030614
v 0.921963 -0.588629 -0.027637
v -0.921963 -0.588629 -0.027637
v 0.916667 -0.583333 -0.026563
v -0.916667 -0.583333 -0.026563
v -1.000000 0.666667 0.090004
v -1.000000 0.666667 -0.076663
v -1.000000 -0.666667 -0.076663
v -1.000000 -0.666667 0.090004
v -0.986967 0.653633 -0.090004
v -0.986967 -0.653633 -0.090004
v -1.000000 -0.666667 -0.076663
v -1.000000 0.666667 -0.076663
v 0.911371 -0.578037 -0.027637
v -0.911371 -0.578037 -0.027637
v 0.906678 -0.573345 -0.030614
v -0.906678 -0.573345 -0.030614
v 0.902984 -0.569650 -0.034887
v -0.902984 -0.569650 -0.034887
v -0.833333 0.500000 0.078513
v -0.833333 -0.500000 0.078513
v -0.833333 -0.500000 -0.076663
v -0.833333 0.500000 -0.076663
v 0.895625 -0.562292 -0.050455
v -0.895625 -0.562292 -0.050455
v 0.887559 -0.554225 -0.063674
v -0.887559 -0.554225 -0.063674
v 0.876909 -0.543576 -0.074136
v -0.876909 -0.543576 -0.074136
v -0.833333 0.500000 -0.076663
v -0.833333 -0.500000 -0.076663
v -0.839410 -0.506077 -0.079205
v -0.839410 0.506077 -0.079205
v 0.864507 -0.531174 -0.080479
v -0.864507 -0.531174 -0.080479
v 1.000000 -0.666667 -0.076663
v 1.000000 -0.666667 0.090004
v -1.000000 -0.666667 0.090004
v -1.000000 -0.666667 -0.076663
v 0.862591 -0.529257 -0.076823
v 0.864507 -0.531174 -0.080479
v -0.864507 -0.531174 -0.080479
v -0.862591 -0.529257 -0.076823
v -0.930350 0.597017 -0.034887
v -0.930350 -0.597017 -0.034887
v -0.943331 -0.609998 -0.074050
v -0.943331 0.609998 -0.074050
v -0.986967 0.653633 -0.090004
v 0.986967 -0.653633 -0.090004
v 0.000000 -0.653633 -0.090004
v 0.000000 -0.647341 -0.081388
v 0.858080 -0.524746 -0.071308
v -0.858080 -0.524746 -0.071308
v 0.851602 -0.518269 -0.069012
v -0.851602 -0.518269 -0.069012
v -0.902984 0.569650 -0.034887
v -0.895625 0.562292 -0.050455
v -0.895625 -0.562292 -0.050455
v -0.902984 -0.569650 -0.034887
v -0.906678 0.573345 -0.030614
v -0.906678 -0.573345 -0.030614
v 0.845129 -0.511796 -0.071334
v -0.845129 -0.511796 -0.071334
v 0.840629 -0.507296 -0.076866
v -0.840629 -0.507296 -0.076866
v 0.839410 -0.506077 -0.079205
v -0.839410 -0.506077 -0.079205
v -0.911371 0.578037 -0.027637
v -0.911371 -0.578037 -0.027637
v -0.916667 0.583333 -0.026563
v -0.916667 -0.583333 -0.026563
v -0.921963 0.588629 -0.027637
v -0.921963 -0.588629 -0.027637
v -0.926655 0.593322 -0.030614
v -0.926655 -0.593322 -0.030614
v 0.833333 -0.500000 -0.076663
v 0.839410 -0.506077 -0.079205
v -0.839410 -0.506077 -0.079205
v -0.833333 -0.500000 -0.076663
v -0.862591 0.529257 -0.076823
v -0.858080 0.524746 -0.071308
v -0.858080 -0.524746 -0.071308
v -0.862591 -0.529257 -0.076823
v -0.851602 0.518269 -0.069012
v -0.851602 -0.518269 -0.069012
v -0.845129 0.511796 -0.071334
v -0.845129 -0.511796 -0.071334
v -0.840629 0.507296 -0.076866
v -0.840629 -0.507296 -0.076866
v -0.887559 0.554225 -0.063674
v -0.887559 -0.554225 -0.063674
v -0.876909 0.543576 -0.074136
v -0.876909 -0.543576 -0.074136
v -0.864507 0.531174 -0.080479
v -0.864507 -0.531174 -0.080479
v -0.864507 0.531174 -0.080479
v -0.864507 -0.531174 -0.080479
v -0.839410 0.506077 -0.079205
v -0.839410 -0.506077 -0.079205
v 0.950638 -0.617305 -0.087728
v -0.950638 -0.617305 -0.087728
v -0.950638 0.617305 -0.087728
v -0.950638 -0.617305 -0.087728
v 0.833333 -0.500000 0.078513
v 0.833333 -0.500000 -0.076663
v -0.833333 -0.500000 -0.076663
v -0.833333 -0.500000 0.078513
v -0.986967 -0.653633 -0.090004
vn -0.0313 -0.0313 -0.9990
vn 0.0313 -0.0313 -0.9990
vn -0.0000 -0.0625 -0.9980
vn -0.0000 0.7153 -0.6988
vn 0.0313 0.0313 -0.9990
vn -0.0313 0.0313 -0.9990
vn -0.0000 0.0625 -0.9980
vn -0.0000 -0.7153 -0.6988
vn -0.0000 -0.0000 1.0000
vn -0.0000 -0.9189 -0.3944
vn -0.0000 -0.9190 -0.3944
vn -0.0000 -0.8820 -0.4712
vn -0.0000 -0.8695 -0.4938
vn -0.0000 -0.8696 -0.4938
vn -0.0000 -0.6531 -0.7573
vn -0.0000 -0.6530 -0.7573
vn -0.1936 -0.1936 -0.9618
vn 0.1936 -0.1936 -0.9618
vn -0.0000 -0.0000 -1.0000
vn 1.0000 -0.0000 -0.0000
vn 0.7153 -0.0000 -0.6988
vn 0.1936 0.1936 -0.9618
vn -0.1936 0.1936 -0.9618
vn -0.0000 0.6530 -0.7573
vn -0.0000 0.8380 -0.5457
vn -1.0000 -0.0000 -0.0000
vn -0.0000 0.8801 -0.4748
vn -0.0000 0.7831 -0.6218
vn 0.3211 0.3211 -0.8909
vn -0.3211 0.3211 -0.8909
vn -0.2006 -0.2006 -0.9589
vn -0.2005 0.2005 -0.9589
vn -0.2006 0.2006 -0.9589
vn -0.2005 -0.2006 -0.9589
vn 0.2405 0.2405 -0.9404
vn -0.2405 0.2405 -0.9404
vn -0.0000 1.0000 -0.0000
vn -0.0000 -0.8341 -0.5515
vn -0.0000 -0.8856 -0.4644
vn -0.0000 -0.8858 -0.4641
vn -0.9190 -0.0000 -0.3944
vn -0.9189 -0.0000 -0.3944
vn -0.8696 -0.0000 -0.4938
vn -0.0000 -0.8076 -0.5898
vn -0.3149 -0.3149 -0.8954
vn 0.3149 -0.3148 -0.8954
vn 0.0009 0.0009 -1.0000
vn -0.0009 0.0009 -1.0000
vn 0.3166 0.3166 -0.8942
vn -0.3166 0.3166 -0.8942
vn -0.0000 0.8356 -0.5494
vn 0.8380 -0.0000 -0.5457
vn 0.8801 -0.0000 -0.4748
vn 0.6530 -0.0000 -0.7573
vn -0.0000 0.8868 -0.4622
vn -0.2006 -0.2005 -0.9589
vn 0.2006 -0.2005 -0.9589
vn 0.2005 -0.2005 -0.9589
vn -0.2005 -0.2005 -0.9589
vn -0.0000 -1.0000 -0.0000
vn -0.6531 -0.0000 -0.7573
vn -0.8341 -0.0000 -0.5516
vn -0.8341 -0.0000 -0.5515
vn -0.3149 0.3149 -0.8954
vn 0.0009 -0.0009 -1.0000
vn 0.0010 0.0009 -1.0000
vn 0.3166 -0.3166 -0.8942
vn 0.8355 -0.0000 -0.5494
vn 0.8356 -0.0000 -0.5494
vn 0.7831 -0.0000 -0.6219
vn 0.7832 -0.0000 -0.6218
vn 0.3211 -0.3211 -0.8909
vn 0.2405 -0.2405 -0.9404
vn -0.8857 -0.0000 -0.4642
vn 0.8868 -0.0000 -0.4622
vn 0.8868 -0.0000 -0.4621
vn -0.8820 -0.0000 -0.4712
vn -0.0000 0.8695 -0.4938
vn -0.0000 0.8696 -0.4938
vn -0.0000 0.9190 -0.3944
vn -0.0000 0.9189 -0.3944
vn -0.0000 0.6531 -0.7573
vn -0.7153 -0.0000 -0.6988
vn -0.0000 -0.8380 -0.5457
vn -0.0000 -0.8801 -0.4748
vn -0.0000 -0.7831 -0.6218
vn -0.3211 -0.3211 -0.8909
vn 0.2006 -0.2006 -0.9589
vn 0.2005 -0.2006 -0.9589
vn 0.2006 0.2006 -0.9589
vn 0.2005 0.2005 -0.9589
vn -0.2405 -0.2405 -0.9404
vn -0.0000 0.8341 -0.5515
vn -0.0000 0.8856 -0.4644
vn -0.0000 0.8858 -0.4641
vn 0.9190 -0.0000 -0.3944
vn 0.8695 -0.0000 -0.4939
vn -0.0000 0.8076 -0.5898
vn 0.3149 0.3149 -0.8954
vn -0.3149 0.3148 -0.8954
vn -0.0009 -0.0009 -1.0000
vn -0.8380 -0.0000 -0.5457
vn -0.8801 -0.0000 -0.4748
vn -0.6530 -0.0000 -0.7573
vn -0.3166 -0.3166 -0.8942
vn -0.0000 -0.8356 -0.5494
vn -0.0000 -0.8868 -0.4622
vn 0.6531 -0.0000 -0.7573
vn 0.2006 0.2005 -0.9589
vn -0.2006 0.2005 -0.9589
vn 0.8341 -0.0000 -0.5516
vn 0.8341 -0.0000 -0.5515
vn 0.3149 -0.3149 -0.8954
vn -0.0010 -0.0009 -1.0000
vn -0.8355 -0.0000 -0.5494
vn -0.8356 -0.0000 -0.5494
vn -0.7831 -0.0000 -0.6219
vn -0.7832 -0.0000 -0.6218
vn 0.8857 -0.0000 -0.4642
vn -0.8868 -0.0000 -0.4622
vn -0.8868 -0.0000 -0.4621
vn -0.0000 0.8820 -0.4712
vn 0.8820 -0.0000 -0.4712
vt 0.000000 0.000000
vt 0.000000 0.000000
vt 0.000000 0.000000
vt 0.000000 0.000000
vt 0.000000 0.000000
vt 0.000000 0.000000
vt 0.000000 0.000000
vt 0.000000 0.000000
vt 0.000000 0.000000
vt 0.000000 0.000000
vt 0.000000 0.000000
vt 0.000000 0.000000
vt 0.000000 0.000000
vt 0.000000 0.000000
vt 0.000000 0.000000
vt 0.000000 0.000000
vt 0.000000 0.000000
vt 0.000000 0.000000
vt 0.000000 0.000000
vt 0.000000 0.000000
vt 0.010000 0.364701
vt 0.542051 0.364701
vt 0.542051 0.010000
vt 0.010000 0.010000
vt 0.814614 0.361231
vt 0.814614 0.013467
vt 0.804931 0.023131
vt 0.804931 0.351567
vt 0.599241 0.513839
vt 0.603366 0.515782
vt 0.603366 0.010000
vt 0.599241 0.011944
vt 0.588265 0.510387
vt 0.588265 0.015397
vt 0.586762 0.509405
vt 0.586762 0.016380
vt 0.585283 0.508156
vt 0.585284 0.017629
vt 0.583846 0.506748
vt 0.583846 0.019038
vt 0.364701 0.751644
vt 0.364701 0.707307
vt 0.010000 0.707306
vt 0.010000 0.751644
vt 0.819576 0.010000
vt 0.814614 0.013467
vt 0.814614 0.361231
vt 0.819576 0.364698
vt 0.582408 0.505339
vt 0.582409 0.020447
vt 0.580929 0.504091
vt 0.580931 0.021695
vt 0.579426 0.503108
vt 0.579428 0.022678
vt 0.276026 0.854817
vt 0.276026 0.813537
vt 0.010000 0.813537
vt 0.010000 0.854818
vt 0.574846 0.501151
vt 0.574847 0.024636
vt 0.570726 0.499006
vt 0.570727 0.026782
vt 0.566754 0.496173
vt 0.566756 0.029616
vt 0.755365 0.052722
vt 0.753613 0.054338
vt 0.753612 0.320362
vt 0.755364 0.321978
vt 0.563049 0.492874
vt 0.563051 0.032915
vt 0.364701 0.652830
vt 0.364701 0.697168
vt 0.896752 0.697167
vt 0.896752 0.652829
vt 0.561951 0.492364
vt 0.563049 0.492874
vt 0.563051 0.032915
vt 0.561952 0.033425
vt 0.800806 0.025075
vt 0.789830 0.028529
vt 0.789829 0.346169
vt 0.800806 0.349623
vt 0.727442 0.527533
vt 0.464883 0.527532
vt 0.727442 0.530371
vt 0.560055 0.491164
vt 0.560057 0.034625
vt 0.558227 0.489441
vt 0.558229 0.036348
vt 0.556398 0.487719
vt 0.556399 0.038070
vt 0.554501 0.486522
vt 0.554502 0.039267
vt 0.780993 0.035809
vt 0.776412 0.037767
vt 0.776411 0.336932
vt 0.780992 0.338890
vt 0.782495 0.034826
vt 0.782495 0.339872
vt 0.553799 0.486197
vt 0.553801 0.039592
vt 0.552047 0.484581
vt 0.553799 0.486197
vt 0.553801 0.039592
vt 0.552048 0.041208
vt 0.276026 0.761784
vt 0.276025 0.803064
vt 0.719401 0.803064
vt 0.719401 0.761783
vt 0.783974 0.033578
vt 0.783973 0.341121
vt 0.785411 0.032169
vt 0.785411 0.342530
vt 0.786849 0.030760
vt 0.786848 0.343938
vt 0.788327 0.029511
vt 0.788327 0.345187
vt 0.010000 0.641022
vt 0.453376 0.641021
vt 0.453376 0.374996
vt 0.010000 0.374996
vt 0.763517 0.046555
vt 0.761622 0.047755
vt 0.761621 0.326945
vt 0.763516 0.328145
vt 0.759794 0.049478
vt 0.759792 0.325222
vt 0.757964 0.051200
vt 0.757963 0.323500
vt 0.756067 0.052398
vt 0.756066 0.322303
vt 0.772292 0.039913
vt 0.772291 0.334786
vt 0.768321 0.042746
vt 0.768320 0.331953
vt 0.764615 0.046045
vt 0.764614 0.328654
vt 0.764615 0.046045
vt 0.764614 0.328654
vt 0.755365 0.052722
vt 0.755364 0.321978
vt 0.804931 0.023131
vt 0.804931 0.351567
vt 0.691989 0.023131
vt 0.682305 0.013467
vt 0.682305 0.361232
vt 0.691989 0.351568
vt 0.629797 0.015397
vt 0.618820 0.011944
vt 0.618821 0.513846
vt 0.629797 0.510393
vt 0.631299 0.016380
vt 0.631300 0.509409
vt 0.632778 0.017628
vt 0.632778 0.508161
vt 0.634215 0.019037
vt 0.634215 0.506752
vt 0.364701 0.697168
vt 0.364701 0.652830
vt 0.010000 0.652829
vt 0.010000 0.697167
vt 0.682305 0.361232
vt 0.682305 0.013467
vt 0.677344 0.010000
vt 0.677344 0.364699
vt 0.635653 0.020446
vt 0.635653 0.505343
vt 0.637131 0.021694
vt 0.637131 0.504095
vt 0.638634 0.022677
vt 0.638634 0.503112
vt 0.276026 0.761784
vt 0.010000 0.761783
vt 0.010000 0.803064
vt 0.276025 0.803064
vt 0.643215 0.024635
vt 0.643215 0.501154
vt 0.647335 0.026780
vt 0.647334 0.499008
vt 0.651306 0.029614
vt 0.651306 0.496175
vt 0.743307 0.320356
vt 0.743308 0.054332
vt 0.741555 0.052716
vt 0.741554 0.321973
vt 0.655012 0.032913
vt 0.655011 0.492876
vt 0.364701 0.707307
vt 0.364701 0.751644
vt 0.896751 0.751644
vt 0.896752 0.707306
vt 0.656110 0.033423
vt 0.655012 0.032913
vt 0.655011 0.492876
vt 0.656109 0.492366
vt 0.707090 0.346169
vt 0.707090 0.028527
vt 0.696114 0.025075
vt 0.696114 0.349623
vt 0.990000 0.527532
vt 0.990000 0.541152
vt 0.727442 0.541152
vt 0.727442 0.543990
vt 0.658005 0.034623
vt 0.658005 0.491166
vt 0.659833 0.036346
vt 0.659833 0.489443
vt 0.715927 0.338887
vt 0.720508 0.336929
vt 0.720508 0.037763
vt 0.715927 0.035806
vt 0.714424 0.339870
vt 0.714425 0.034823
vt 0.661663 0.038068
vt 0.661663 0.487721
vt 0.663560 0.039265
vt 0.663560 0.486524
vt 0.664261 0.039590
vt 0.664261 0.486200
vt 0.712946 0.341119
vt 0.712946 0.033575
vt 0.711508 0.342528
vt 0.711509 0.032166
vt 0.710071 0.343937
vt 0.710071 0.030758
vt 0.708592 0.345185
vt 0.708593 0.029509
vt 0.666014 0.041206
vt 0.664261 0.039590
vt 0.664261 0.486200
vt 0.666014 0.484583
vt 0.733402 0.328140
vt 0.735298 0.326940
vt 0.735299 0.047749
vt 0.733403 0.046550
vt 0.737126 0.325217
vt 0.737127 0.049472
vt 0.738956 0.323494
vt 0.738956 0.051194
vt 0.740853 0.322298
vt 0.740854 0.052391
vt 0.724627 0.334783
vt 0.724628 0.039908
vt 0.728599 0.331949
vt 0.728599 0.042741
vt 0.732304 0.328650
vt 0.732305 0.046040
vt 0.732304 0.328650
vt 0.732305 0.046040
vt 0.741554 0.321973
vt 0.741555 0.052716
vt 0.614695 0.010000
vt 0.614696 0.515790
vt 0.691989 0.351568
vt 0.691989 0.023131
vt 0.276026 0.813537
vt 0.276026 0.854817
vt 0.719401 0.854818
vt 0.719401 0.813537
vt 0.464883 0.541151
s 1
usemtl defaultMaterial
f 5/5/1 1/1/2 2/2/2
f 5/5/1 2/2/2 3/3/3
f 3/3/3 4/4/1 5/5/1
s 0
f 10/10/4 6/6/4 7/7/4
f 10/10/4 7/7/4 8/8/4
f 8/8/4 9/9/4 10/10/4
s 1
f 15/15/5 11/11/6 12/12/6
f 15/15/5 12/12/6 13/13/7
f 13/13/7 14/14/5 15/15/5
s 0
f 20/20/8 16/16/8 17/17/8
f 20/20/8 17/17/8 18/18/8
f 18/18/8 19/19/8 20/20/8
f 24/24/9 21/21/9 22/22/9
f 22/22/9 23/23/9 24/24/9
s 1
f 28/28/1 25/25/1 26/26/6
f 26/26/6 27/27/6 28/28/1
f 32/32/10 29/29/11 30/30/12
f 30/30/12 31/31/12 32/32/10
f 34/34/13 33/33/14 29/29/11
f 29/29/11 32/32/10 34/34/13
f 36/36/15 35/35/16 33/33/14
f 33/33/14 34/34/13 36/36/15
f 38/38/17 37/37/18 35/35/16
f 35/35/16 36/36/15 38/38/17
f 40/40/19 39/39/19 37/37/18
f 37/37/18 38/38/17 40/40/19
s 0
f 44/44/20 41/41/20 42/42/20
f 42/42/20 43/43/20 44/44/20
f 48/48/21 45/45/21 46/46/21
f 46/46/21 47/47/21 48/48/21
s 1
f 50/50/22 49/49/23 39/39/19
f 39/39/19 40/40/19 50/50/22
f 52/52/24 51/51/24 49/49/23
f 49/49/23 50/50/22 52/52/24
f 54/54/25 53/53/25 51/51/24
f 51/51/24 52/52/24 54/54/25
s 0
f 58/58/26 55/55/26 56/56/26
f 56/56/26 57/57/26 58/58/26
s 1
f 60/60/27 59/59/27 53/53/25
f 53/53/25 54/54/25 60/60/27
f 62/62/28 61/61/28 59/59/27
f 59/59/27 60/60/27 62/62/28
f 64/64/29 63/63/30 61/61/28
f 61/61/28 62/62/28 64/64/29
f 68/68/31 65/65/32 66/66/33
f 66/66/33 67/67/34 68/68/31
f 70/70/35 69/69/36 63/63/30
f 63/63/30 64/64/29 70/70/35
s 0
f 74/74/37 71/71/37 72/72/37
f 72/72/37 73/73/37 74/74/37
s 1
f 78/78/38 75/75/38 76/76/39
f 76/76/39 77/77/40 78/78/38
f 82/82/41 79/79/42 80/80/43
f 80/80/43 81/81/43 82/82/41
s 0
f 83/83/44 84/84/44 85/85/44
s 1
f 87/87/45 86/86/46 75/75/38
f 75/75/38 78/78/38 87/87/45
f 89/89/47 88/88/48 86/86/46
f 86/86/46 87/87/45 89/89/47
f 91/91/49 90/90/50 88/88/48
f 88/88/48 89/89/47 91/91/49
f 93/93/51 92/92/51 90/90/50
f 90/90/50 91/91/49 93/93/51
f 97/97/52 94/94/52 95/95/53
f 95/95/53 96/96/53 97/97/52
f 99/99/54 98/98/54 94/94/52
f 94/94/52 97/97/52 99/99/54
f 101/101/55 100/100/55 92/92/51
f 92/92/51 93/93/51 101/101/55
f 105/105/56 102/102/57 103/103/58
f 103/103/58 104/104/59 105/105/56
s 0
f 109/109/60 106/106/60 107/107/60
f 107/107/60 108/108/60 109/109/60
s 1
f 111/111/22 110/110/18 98/98/54
f 98/98/54 99/99/54 111/111/22
f 113/113/19 112/112/19 110/110/18
f 110/110/18 111/111/22 113/113/19
f 115/115/17 114/114/23 112/112/19
f 112/112/19 113/113/19 115/115/17
f 117/117/61 116/116/61 114/114/23
f 114/114/23 115/115/17 117/117/61
f 81/81/43 80/80/43 116/116/61
f 116/116/61 117/117/61 81/81/43
s 0
f 121/121/19 118/118/19 119/119/19
f 119/119/19 120/120/19 121/121/19
s 1
f 125/125/62 122/122/63 123/123/64
f 123/123/64 124/124/45 125/125/62
f 124/124/45 123/123/64 126/126/65
f 126/126/65 127/127/66 124/124/45
f 127/127/66 126/126/65 128/128/67
f 128/128/67 129/129/49 127/127/66
f 129/129/49 128/128/67 130/130/68
f 130/130/68 131/131/69 129/129/49
f 96/96/53 95/95/53 132/132/70
f 132/132/70 133/133/71 96/96/53
f 133/133/71 132/132/70 134/134/72
f 134/134/72 135/135/29 133/133/71
f 135/135/29 134/134/72 136/136/73
f 136/136/73 137/137/35 135/135/29
f 139/139/74 138/138/74 122/122/63
f 122/122/63 125/125/62 139/139/74
f 131/131/69 130/130/68 140/140/75
f 140/140/75 141/141/76 131/131/69
f 143/143/77 142/142/77 79/79/42
f 79/79/42 82/82/41 143/143/77
f 147/147/2 144/144/5 145/145/5
f 145/145/5 146/146/2 147/147/2
f 151/151/78 148/148/79 149/149/80
f 149/149/80 150/150/81 151/151/78
f 153/153/82 152/152/24 148/148/79
f 148/148/79 151/151/78 153/153/82
f 155/155/22 154/154/23 152/152/24
f 152/152/24 153/153/82 155/155/22
f 157/157/19 156/156/19 154/154/23
f 154/154/23 155/155/22 157/157/19
s 0
f 161/161/26 158/158/26 159/159/26
f 159/159/26 160/160/26 161/161/26
f 165/165/83 162/162/83 163/163/83
f 163/163/83 164/164/83 165/165/83
s 1
f 167/167/17 166/166/18 156/156/19
f 156/156/19 157/157/19 167/167/17
f 169/169/16 168/168/16 166/166/18
f 166/166/18 167/167/17 169/169/16
f 171/171/84 170/170/84 168/168/16
f 168/168/16 169/169/16 171/171/84
s 0
f 175/175/20 172/172/20 173/173/20
f 173/173/20 174/174/20 175/175/20
s 1
f 177/177/85 176/176/85 170/170/84
f 170/170/84 171/171/84 177/177/85
f 179/179/86 178/178/86 176/176/85
f 176/176/85 177/177/85 179/179/86
f 181/181/87 180/180/72 178/178/86
f 178/178/86 179/179/86 181/181/87
f 185/185/88 182/182/89 183/183/90
f 183/183/90 184/184/91 185/185/88
f 187/187/92 186/186/73 180/180/72
f 180/180/72 181/181/87 187/187/92
s 0
f 191/191/60 188/188/60 189/189/60
f 189/189/60 190/190/60 191/191/60
s 1
f 195/195/93 192/192/93 193/193/94
f 193/193/94 194/194/95 195/195/93
f 199/199/96 196/196/97 197/197/97
f 197/197/97 198/198/96 199/199/96
s 0
f 200/200/44 83/83/44 85/85/44
f 201/201/98 202/202/98 203/203/98
s 1
f 205/205/99 204/204/100 192/192/93
f 192/192/93 195/195/93 205/205/99
f 207/207/101 206/206/65 204/204/100
f 204/204/100 205/205/99 207/207/101
f 211/211/102 208/208/102 209/209/103
f 209/209/103 210/210/103 211/211/102
f 213/213/104 212/212/104 208/208/102
f 208/208/102 211/211/102 213/213/104
f 215/215/105 214/214/67 206/206/65
f 206/206/65 207/207/101 215/215/105
f 217/217/106 216/216/106 214/214/67
f 214/214/67 215/215/105 217/217/106
f 219/219/107 218/218/107 216/216/106
f 216/216/106 217/217/106 219/219/107
f 221/221/17 220/220/23 212/212/104
f 212/212/104 213/213/104 221/221/17
f 223/223/19 222/222/19 220/220/23
f 220/220/23 221/221/17 223/223/19
f 225/225/22 224/224/18 222/222/19
f 222/222/19 223/223/19 225/225/22
f 227/227/108 226/226/108 224/224/18
f 224/224/18 225/225/22 227/227/108
f 197/197/97 196/196/97 226/226/108
f 226/226/108 227/227/108 197/197/97
f 231/231/109 228/228/110 229/229/32
f 229/229/32 230/230/91 231/231/109
f 235/235/111 232/232/112 233/233/113
f 233/233/113 234/234/99 235/235/111
f 234/234/99 233/233/113 236/236/48
f 236/236/48 237/237/114 234/234/99
f 237/237/114 236/236/48 238/238/50
f 238/238/50 239/239/105 237/237/114
f 239/239/105 238/238/50 240/240/115
f 240/240/115 241/241/116 239/239/105
f 210/210/103 209/209/103 242/242/117
f 242/242/117 243/243/118 210/210/103
f 243/243/118 242/242/117 244/244/30
f 244/244/30 245/245/87 243/243/118
f 245/245/87 244/244/30 246/246/36
f 246/246/36 247/247/92 245/245/87
f 249/249/119 248/248/119 232/232/112
f 232/232/112 235/235/111 249/249/119
f 241/241/116 240/240/115 250/250/120
f 250/250/120 251/251/121 241/241/116
f 150/150/81 149/149/80 252/252/122
f 252/252/122 253/253/122 150/150/81
f 255/255/123 254/254/123 199/199/96
f 199/199/96 198/198/96 255/255/123
s 0
f 259/259/37 256/256/37 257/257/37
f 257/257/37 258/258/37 259/259/37
f 202/202/98 260/260/98 203/203/98
