# Blender 3.4.1
# www.blender.org
mtllib Tile.mtl
o Tile
v -0.012500 0.001200 -0.015800
v -0.011300 0.001200 -0.017000
v -0.011300 0.000000 -0.015800
v -0.012340 0.001200 -0.016399
v -0.012340 0.000601 -0.015800
v -0.012184 0.000626 -0.016374
v -0.011300 0.000601 -0.016840
v -0.011899 0.001200 -0.016840
v -0.011874 0.000626 -0.016684
v -0.011899 0.000160 -0.015800
v -0.011300 0.000160 -0.016399
v -0.011874 0.000316 -0.016374
v 0.011300 0.001200 -0.017000
v 0.012500 0.001200 -0.015800
v 0.011300 0.000000 -0.015800
v 0.011899 0.001200 -0.016840
v 0.011300 0.000601 -0.016840
v 0.011874 0.000626 -0.016684
v 0.012340 0.000601 -0.015800
v 0.012340 0.001200 -0.016399
v 0.012184 0.000626 -0.016374
v 0.011300 0.000160 -0.016399
v 0.011899 0.000160 -0.015800
v 0.011874 0.000316 -0.016374
v -0.012500 0.001200 0.015800
v -0.011300 -0.000000 0.015800
v -0.011300 0.001200 0.017000
v -0.012340 0.000601 0.015800
v -0.012340 0.001200 0.016399
v -0.012184 0.000626 0.016374
v -0.011300 0.000160 0.016399
v -0.011899 0.000160 0.015800
v -0.011874 0.000316 0.016374
v -0.011899 0.001200 0.016840
v -0.011300 0.000601 0.016840
v -0.011874 0.000626 0.016684
v 0.012500 0.001200 0.015800
v 0.011300 0.001200 0.017000
v 0.011300 -0.000000 0.015800
v 0.012340 0.001200 0.016399
v 0.012340 0.000601 0.015800
v 0.012184 0.000626 0.016374
v 0.011300 0.000601 0.016840
v 0.011899 0.001200 0.016840
v 0.011874 0.000626 0.016684
v 0.011899 0.000160 0.015800
v 0.011300 0.000160 0.016399
v 0.011874 0.000316 0.016374
v -0.012500 0.012290 -0.015800
v -0.011300 0.013490 -0.015800
v -0.011300 0.012290 -0.017000
v -0.012340 0.012889 -0.015800
v -0.012340 0.012290 -0.016399
v -0.012184 0.012864 -0.016374
v -0.011300 0.013330 -0.016399
v -0.011899 0.013330 -0.015800
v -0.011874 0.013174 -0.016374
v -0.011899 0.012290 -0.016840
v -0.011300 0.012889 -0.016840
v -0.011874 0.012864 -0.016684
v 0.012500 0.012290 -0.015800
v 0.011300 0.012290 -0.017000
v 0.011300 0.013490 -0.015800
v 0.012340 0.012290 -0.016399
v 0.012340 0.012889 -0.015800
v 0.012184 0.012864 -0.016374
v 0.011300 0.012889 -0.016840
v 0.011899 0.012290 -0.016840
v 0.011874 0.012864 -0.016684
v 0.011899 0.013330 -0.015800
v 0.011300 0.013330 -0.016399
v 0.011874 0.013174 -0.016374
v -0.012500 0.012290 0.015800
v -0.011300 0.012290 0.017000
v -0.011300 0.013490 0.015800
v -0.012340 0.012290 0.016399
v -0.012340 0.012889 0.015800
v -0.012184 0.012864 0.016374
v -0.011300 0.012889 0.016840
v -0.011899 0.012290 0.016840
v -0.011874 0.012864 0.016684
v -0.011899 0.013330 0.015800
v -0.011300 0.013330 0.016399
v -0.011874 0.013174 0.016374
v 0.012500 0.012290 0.015800
v 0.011300 0.013490 0.015800
v 0.011300 0.012290 0.017000
v 0.012340 0.012889 0.015800
v 0.012340 0.012290 0.016399
v 0.012184 0.012864 0.016374
v 0.011300 0.013330 0.016399
v 0.011899 0.013330 0.015800
v 0.011874 0.013174 0.016374
v 0.011899 0.012290 0.016840
v 0.011300 0.012889 0.016840
v 0.011874 0.012864 0.016684
vn -0.1297 0.1297 -0.9830
vn 0.1298 0.1298 -0.9830
vn 0.1297 -0.1297 -0.9830
vn -0.1298 -0.1298 -0.9830
vn -0.1298 0.9830 0.1298
vn 0.1295 0.9831 0.1295
vn 0.1298 0.9830 -0.1298
vn -0.1295 0.9831 -0.1295
vn 0.9830 0.1297 0.1297
vn 0.9830 -0.1297 0.1297
vn 0.9830 -0.1297 -0.1297
vn 0.9830 0.1297 -0.1297
vn -0.1298 -0.9830 -0.1298
vn 0.1295 -0.9831 -0.1295
vn 0.1298 -0.9830 0.1298
vn -0.1295 -0.9831 0.1295
vn -0.1297 -0.1297 0.9830
vn 0.1298 -0.1298 0.9830
vn 0.1297 0.1297 0.9830
vn -0.1298 0.1298 0.9830
vn -0.9830 -0.1297 -0.1297
vn -0.8624 -0.1215 -0.4914
vn -0.7744 -0.4474 -0.4474
vn -0.8624 -0.4914 -0.1215
vn -0.4914 -0.1215 -0.8624
vn -0.4474 -0.4474 -0.7744
vn -0.1215 -0.4914 -0.8624
vn -0.1215 -0.8624 -0.4914
vn -0.4474 -0.7744 -0.4474
vn -0.4914 -0.8624 -0.1215
vn 0.4914 -0.1215 -0.8624
vn 0.4474 -0.4474 -0.7744
vn 0.1215 -0.4914 -0.8624
vn 0.8624 -0.1215 -0.4914
vn 0.7744 -0.4474 -0.4474
vn 0.8624 -0.4914 -0.1215
vn 0.4914 -0.8624 -0.1215
vn 0.4474 -0.7744 -0.4474
vn 0.1215 -0.8624 -0.4914
vn -0.9830 -0.1297 0.1297
vn -0.8624 -0.4914 0.1215
vn -0.7744 -0.4474 0.4474
vn -0.8624 -0.1215 0.4914
vn -0.4914 -0.8624 0.1215
vn -0.4474 -0.7744 0.4474
vn -0.1215 -0.8624 0.4914
vn -0.1215 -0.4914 0.8624
vn -0.4474 -0.4474 0.7744
vn -0.4914 -0.1215 0.8624
vn 0.8624 -0.1215 0.4914
vn 0.7744 -0.4474 0.4474
vn 0.8624 -0.4914 0.1215
vn 0.4914 -0.1215 0.8624
vn 0.4474 -0.4474 0.7744
vn 0.1215 -0.4914 0.8624
vn 0.1215 -0.8624 0.4914
vn 0.4474 -0.7744 0.4474
vn 0.4914 -0.8624 0.1215
vn -0.9830 0.1297 -0.1297
vn -0.8624 0.4914 -0.1215
vn -0.7744 0.4474 -0.4474
vn -0.8624 0.1215 -0.4914
vn -0.4914 0.8624 -0.1215
vn -0.4474 0.7744 -0.4474
vn -0.1215 0.8624 -0.4914
vn -0.1215 0.4914 -0.8624
vn -0.4474 0.4474 -0.7744
vn -0.4914 0.1215 -0.8624
vn 0.8624 0.1215 -0.4914
vn 0.7744 0.4474 -0.4474
vn 0.8624 0.4914 -0.1215
vn 0.4914 0.1215 -0.8624
vn 0.4474 0.4474 -0.7744
vn 0.1215 0.4914 -0.8624
vn 0.1215 0.8624 -0.4914
vn 0.4474 0.7744 -0.4474
vn 0.4914 0.8624 -0.1215
vn -0.9830 0.1297 0.1297
vn -0.8624 0.1215 0.4914
vn -0.7744 0.4474 0.4474
vn -0.8624 0.4914 0.1215
vn -0.4914 0.1215 0.8624
vn -0.4474 0.4474 0.7744
vn -0.1215 0.4914 0.8624
vn -0.1215 0.8624 0.4914
vn -0.4474 0.7744 0.4474
vn -0.4914 0.8624 0.1215
vn 0.8624 0.4914 0.1215
vn 0.7744 0.4474 0.4474
vn 0.8624 0.1215 0.4914
vn 0.4914 0.8624 0.1215
vn 0.4474 0.7744 0.4474
vn 0.1215 0.8624 0.4914
vn 0.1215 0.4914 0.8624
vn 0.4474 0.4474 0.7744
vn 0.4914 0.1215 0.8624
vt 0.000000 0.964706
vt 0.048000 1.000000
vt 0.048000 0.000000
vt 0.000000 0.982330
vt 0.000000 0.964706
vt 0.000000 0.000000
vt 0.012642 0.000000
vt 0.000000 0.981584
vt 0.048000 1.000000
vt 0.048000 0.000000
vt 0.024031 1.000000
vt 0.025046 1.000000
vt 0.025046 0.000000
vt 0.000000 0.990705
vt 0.024031 0.000000
vt 0.048000 0.000000
vt 0.025046 0.000000
vt 0.000000 0.981584
vt 0.952000 1.000000
vt 1.000000 0.964706
vt 0.952000 0.000000
vt 0.975969 1.000000
vt 0.952000 1.000000
vt 0.952000 0.000000
vt 0.974954 0.000000
vt 0.974954 1.000000
vt 1.000000 0.964706
vt 1.000000 0.000000
vt 1.000000 0.982330
vt 1.000000 0.981584
vt 0.987358 0.000000
vt 0.987358 1.000000
vt 0.952000 0.000000
vt 0.975969 0.000000
vt 0.974954 0.000000
vt 0.974954 1.000000
vt 0.000000 0.035294
vt 0.048000 0.000000
vt 0.048000 0.000000
vt 0.000000 0.035294
vt 0.000000 0.000000
vt 0.000000 0.017670
vt 0.000000 0.018416
vt 0.000000 0.000000
vt 0.048000 0.000000
vt 0.024031 0.000000
vt 0.025046 0.000000
vt 0.024031 0.000000
vt 0.048000 0.000000
vt 0.025046 0.000000
vt 1.000000 0.035294
vt 0.952000 0.000000
vt 0.952000 0.000000
vt 1.000000 0.017670
vt 1.000000 0.035294
vt 1.000000 0.000000
vt 1.000000 0.018416
vt 0.987358 0.000000
vt 0.952000 0.000000
vt 0.975969 0.000000
vt 0.974954 0.000000
vt 0.975969 0.000000
vt 0.952000 0.000000
vt 0.974954 0.000000
vt 0.000000 0.964706
vt 0.048000 0.964706
vt 0.048000 1.000000
vt 0.000000 0.964706
vt 0.000000 0.982330
vt 0.000000 0.981584
vt 0.048000 0.982330
vt 0.024031 0.964706
vt 0.025046 0.981584
vt 0.024031 1.000000
vt 0.048000 1.000000
vt 0.025046 1.000000
vt 1.000000 0.964706
vt 0.952000 1.000000
vt 0.952000 0.964706
vt 1.000000 0.982330
vt 1.000000 0.964706
vt 1.000000 0.981584
vt 0.952000 1.000000
vt 0.975969 1.000000
vt 0.974954 1.000000
vt 0.975969 0.964706
vt 0.952000 0.982330
vt 0.974954 0.981584
vt 0.000000 0.035294
vt 0.048000 0.000000
vt 0.048000 0.035294
vt 0.000000 0.017670
vt 0.000000 0.035294
vt 0.000000 0.018416
vt 0.048000 0.000000
vt 0.024031 0.000000
vt 0.025046 0.000000
vt 0.024031 0.035294
vt 0.048000 0.017670
vt 0.025046 0.018416
vt 1.000000 0.035294
vt 0.952000 0.035294
vt 0.952000 0.000000
vt 1.000000 0.035294
vt 1.000000 0.017670
vt 1.000000 0.018416
vt 0.952000 0.017670
vt 0.975969 0.035294
vt 0.974954 0.018416
vt 0.975969 0.000000
vt 0.952000 0.000000
vt 0.974954 0.000000
s 1
usemtl Material.001
f 51/67/1 62/78/2 13/19/3 2/2/4
f 75/91/5 86/102/6 63/79/7 50/66/8
f 85/101/9 37/51/10 14/20/11 61/77/12
f 3/3/13 15/21/14 39/53/15 26/38/16
f 27/39/17 38/52/18 87/103/19 74/90/20
f 1/1/21 4/4/22 6/8/23 5/5/24
f 4/4/22 8/11/25 9/12/26 6/8/23
f 2/2/4 7/9/27 9/12/26 8/11/25
f 7/10/27 11/16/28 12/17/29 9/13/26
f 3/3/13 10/15/30 12/17/29 11/16/28
f 10/15/30 5/6/24 6/7/23 12/17/29
f 6/8/23 9/14/26 12/18/29
f 13/19/3 16/22/31 18/26/32 17/23/33
f 16/22/31 20/29/34 21/30/35 18/26/32
f 14/20/11 19/27/36 21/30/35 20/29/34
f 19/28/36 23/34/37 24/35/38 21/31/35
f 15/21/14 22/33/39 24/35/38 23/34/37
f 22/33/39 17/24/33 18/25/32 24/35/38
f 18/26/32 21/32/35 24/36/38
f 25/37/40 28/40/41 30/43/42 29/42/43
f 28/41/41 32/46/44 33/47/45 30/44/42
f 26/38/16 31/45/46 33/47/45 32/46/44
f 31/45/46 35/49/47 36/50/48 33/47/45
f 27/39/17 34/48/49 36/50/48 35/49/47
f 34/48/49 29/42/43 30/43/42 36/50/48
f 30/44/42 33/47/45 36/50/48
f 37/51/10 40/54/50 42/57/51 41/55/52
f 40/54/50 44/60/53 45/61/54 42/57/51
f 38/52/18 43/59/55 45/61/54 44/60/53
f 43/59/55 47/63/56 48/64/57 45/61/54
f 39/53/15 46/62/58 48/64/57 47/63/56
f 46/62/58 41/56/52 42/58/51 48/64/57
f 42/58/51 45/61/54 48/64/57
f 49/65/59 52/68/60 54/70/61 53/69/62
f 52/68/60 56/72/63 57/73/64 54/70/61
f 50/66/8 55/71/65 57/73/64 56/72/63
f 55/71/65 59/75/66 60/76/67 57/73/64
f 51/67/1 58/74/68 60/76/67 59/75/66
f 58/74/68 53/69/62 54/70/61 60/76/67
f 54/70/61 57/73/64 60/76/67
f 61/77/12 64/80/69 66/82/70 65/81/71
f 64/80/69 68/84/72 69/85/73 66/82/70
f 62/78/2 67/83/74 69/85/73 68/84/72
f 67/83/74 71/87/75 72/88/76 69/85/73
f 63/79/7 70/86/77 72/88/76 71/87/75
f 70/86/77 65/81/71 66/82/70 72/88/76
f 66/82/70 69/85/73 72/88/76
f 73/89/78 76/92/79 78/94/80 77/93/81
f 76/92/79 80/96/82 81/97/83 78/94/80
f 74/90/20 79/95/84 81/97/83 80/96/82
f 79/95/84 83/99/85 84/100/86 81/97/83
f 75/91/5 82/98/87 84/100/86 83/99/85
f 82/98/87 77/93/81 78/94/80 84/100/86
f 78/94/80 81/97/83 84/100/86
f 85/101/9 88/104/88 90/106/89 89/105/90
f 88/104/88 92/108/91 93/109/92 90/106/89
f 86/102/6 91/107/93 93/109/92 92/108/91
f 91/107/93 95/111/94 96/112/95 93/109/92
f 87/103/19 94/110/96 96/112/95 95/111/94
f 94/110/96 89/105/90 90/106/89 96/112/95
f 90/106/89 93/109/92 96/112/95
f 25/37/40 1/1/21 5/5/24 28/40/41
f 28/41/41 5/6/24 10/15/30 32/46/44
f 32/46/44 10/15/30 3/3/13 26/38/16
f 2/2/4 13/19/3 17/23/33 7/9/27
f 7/10/27 17/24/33 22/33/39 11/16/28
f 11/16/28 22/33/39 15/21/14 3/3/13
f 14/20/11 37/51/10 41/55/52 19/27/36
f 19/28/36 41/56/52 46/62/58 23/34/37
f 23/34/37 46/62/58 39/53/15 15/21/14
f 38/52/18 27/39/17 35/49/47 43/59/55
f 43/59/55 35/49/47 31/45/46 47/63/56
f 47/63/56 31/45/46 26/38/16 39/53/15
f 73/89/78 25/37/40 29/42/43 76/92/79
f 76/92/79 29/42/43 34/48/49 80/96/82
f 80/96/82 34/48/49 27/39/17 74/90/20
f 37/51/10 85/101/9 89/105/90 40/54/50
f 40/54/50 89/105/90 94/110/96 44/60/53
f 44/60/53 94/110/96 87/103/19 38/52/18
f 86/102/6 75/91/5 83/99/85 91/107/93
f 91/107/93 83/99/85 79/95/84 95/111/94
f 95/111/94 79/95/84 74/90/20 87/103/19
f 49/65/59 73/89/78 77/93/81 52/68/60
f 52/68/60 77/93/81 82/98/87 56/72/63
f 56/72/63 82/98/87 75/91/5 50/66/8
f 85/101/9 61/77/12 65/81/71 88/104/88
f 88/104/88 65/81/71 70/86/77 92/108/91
f 92/108/91 70/86/77 63/79/7 86/102/6
f 62/78/2 51/67/1 59/75/66 67/83/74
f 67/83/74 59/75/66 55/71/65 71/87/75
f 71/87/75 55/71/65 50/66/8 63/79/7
f 1/1/21 49/65/59 53/69/62 4/4/22
f 4/4/22 53/69/62 58/74/68 8/11/25
f 8/11/25 58/74/68 51/67/1 2/2/4
f 61/77/12 14/20/11 20/29/34 64/80/69
f 64/80/69 20/29/34 16/22/31 68/84/72
f 68/84/72 16/22/31 13/19/3 62/78/2
f 25/37/40 73/89/78 49/65/59 1/1/21
